<svg version="1.1" xmlns="http://www.w3.org/2000/svg" xmlns:xlink="http://www.w3.org/1999/xlink" viewBox="0 0 768 1280" xml:space="preserve">
<path d="M464,1152c0-22-7.83-40.83-23.5-56.5S406,1072,384,1072s-40.83,7.83-56.5,23.5S304,1130,304,1152s7.83,40.83,23.5,56.5
	S362,1232,384,1232s40.83-7.83,56.5-23.5S464,1174,464,1152z M672,992V288c0-8.67-3.17-16.17-9.5-22.5S648.67,256,640,256H128
	c-8.67,0-16.17,3.17-22.5,9.5S96,279.33,96,288v704c0,8.67,3.17,16.17,9.5,22.5s13.83,9.5,22.5,9.5h512c8.67,0,16.17-3.17,22.5-9.5
	S672,1000.67,672,992z M480,144c0-10.67-5.33-16-16-16H304c-10.67,0-16,5.33-16,16s5.33,16,16,16h160C474.67,160,480,154.67,480,144
	z M768,128v1024c0,34.67-12.67,64.67-38,90s-55.33,38-90,38H128c-34.67,0-64.67-12.67-90-38s-38-55.33-38-90V128
	c0-34.67,12.67-64.67,38-90S93.33,0,128,0h512c34.67,0,64.67,12.67,90,38S768,93.33,768,128z"/>
</svg>
