<svg version="1.1" xmlns="http://www.w3.org/2000/svg" xmlns:xlink="http://www.w3.org/1999/xlink" viewBox="0 0 1536 1536" xml:space="preserve">
<path d="M896,416v448c0,9.33-3,17-9,23s-13.67,9-23,9H544c-9.33,0-17-3-23-9s-9-13.67-9-23v-64c0-9.33,3-17,9-23s13.67-9,23-9h224
	V416c0-9.33,3-17,9-23s13.67-9,23-9h64c9.33,0,17,3,23,9S896,406.67,896,416z M1312,768c0-98.67-24.33-189.67-73-273
	s-114.67-149.33-198-198s-174.33-73-273-73s-189.67,24.33-273,73S345.67,411.67,297,495s-73,174.33-73,273s24.33,189.67,73,273
	s114.67,149.33,198,198s174.33,73,273,73s189.67-24.33,273-73s149.33-114.67,198-198S1312,866.67,1312,768z M1536,768
	c0,139.33-34.33,267.83-103,385.5s-161.83,210.83-279.5,279.5S907.33,1536,768,1536s-267.83-34.33-385.5-103
	S171.67,1271.17,103,1153.5S0,907.33,0,768s34.33-267.83,103-385.5S264.83,171.67,382.5,103S628.67,0,768,0s267.83,34.33,385.5,103
	s210.83,161.83,279.5,279.5S1536,628.67,1536,768z"/>
</svg>
