<svg version="1.1"  xmlns="http://www.w3.org/2000/svg" xmlns:xlink="http://www.w3.org/1999/xlink" viewBox="0 0 1792 1536" xml:space="preserve">
<path d="M640,640c0,35.33-12.5,65.5-37.5,90.5S547.33,768,512,768s-65.5-12.5-90.5-37.5S384,675.33,384,640s12.5-65.5,37.5-90.5
	S476.67,512,512,512s65.5,12.5,90.5,37.5S640,604.67,640,640z M1024,640c0,35.33-12.5,65.5-37.5,90.5S931.33,768,896,768
	s-65.5-12.5-90.5-37.5S768,675.33,768,640s12.5-65.5,37.5-90.5S860.67,512,896,512s65.5,12.5,90.5,37.5S1024,604.67,1024,640z
	 M1408,640c0,35.33-12.5,65.5-37.5,90.5S1315.33,768,1280,768s-65.5-12.5-90.5-37.5S1152,675.33,1152,640s12.5-65.5,37.5-90.5
	s55.17-37.5,90.5-37.5s65.5,12.5,90.5,37.5S1408,604.67,1408,640z M896,128c-136,0-263.17,23.17-381.5,69.5S302.17,306.33,232.5,385
	S128,548.67,128,640c0,74.67,23.83,145.83,71.5,213.5S314.33,979.67,401,1029l87,50l-27,96c-16,60.67-39.33,118-70,172
	c101.33-42,193-99,275-171l43-38l57,6c46,5.33,89.33,8,130,8c136,0,263.17-23.17,381.5-69.5s212.33-108.83,282-187.5
	S1664,731.33,1664,640s-34.83-176.33-104.5-255s-163.67-141.17-282-187.5S1032,128,896,128z M1792,640c0,116-40,223.17-120,321.5
	s-188.67,176-326,233s-287.33,85.5-450,85.5c-46.67,0-95-2.67-145-8c-132,116.67-285.33,197.33-460,242
	c-32.67,9.33-70.67,16.67-114,22h-5c-10,0-19-3.5-27-10.5s-13.33-16.17-16-27.5v-1c-2-2.67-2.17-6.67-0.5-12
	c1.67-5.33,2.33-8.67,2-10s1.17-4.5,4.5-9.5l6-9l7-8.5l8-9c4.67-5.33,15-16.83,31-34.5s27.5-30.33,34.5-38s17.33-20.83,31-39.5
	c13.67-18.67,24.5-35.67,32.5-51s17-35,27-59s18.67-49.33,26-76c-104.67-59.33-187.17-132.67-247.5-220S0,740,0,640
	c0-86.67,23.67-169.5,71-248.5S182,244.33,262,187S437.33,84.17,548,50.5S774.67,0,896,0s237.33,16.83,348,50.5s206,79.17,286,136.5
	s143.67,125.5,191,204.5S1792,553.33,1792,640z"/>
</svg>
