<svg version="1.1" xmlns="http://www.w3.org/2000/svg" xmlns:xlink="http://www.w3.org/1999/xlink" viewBox="0 0 1792 1536" xml:space="preserve">
<path d="M1664,468c0-54-7.17-101.67-21.5-143s-32.67-74.17-55-98.5S1538,182.33,1506,167s-63.33-25.67-94-31s-63.33-8-98-8
	s-72,8.5-112,25.5s-76.83,38.33-110.5,64s-62.5,49.67-86.5,72s-44,42.83-60,61.5c-12,14.67-28.33,22-49,22s-37-7.33-49-22
	c-16-18.67-36-39.17-60-61.5s-52.83-46.33-86.5-72s-70.5-47-110.5-64S512.67,128,478,128s-67.33,2.67-98,8s-62,15.67-94,31
	s-59.17,35.17-81.5,59.5s-40.67,57.17-55,98.5S128,414,128,468c0,112,62.33,230.33,187,355l581,560l580-559
	C1601.33,698.67,1664,580,1664,468z M1792,468c0,147.33-76.33,297.33-229,450l-623,600c-12,12-26.67,18-44,18s-32-6-44-18L228,916
	c-6.67-5.33-15.83-14-27.5-26s-30.17-33.83-55.5-65.5S97,760.33,77,727s-37.83-73.67-53.5-121S0,512.67,0,468
	c0-146.67,42.33-261.33,127-344S328.67,0,478,0c41.33,0,83.5,7.17,126.5,21.5s83,33.67,120,58s68.83,47.17,95.5,68.5s52,44,76,68
	c24-24,49.33-46.67,76-68s58.5-44.17,95.5-68.5s77-43.67,120-58S1272.67,0,1314,0c149.33,0,266.33,41.33,351,124
	S1792,321.33,1792,468z"/>
</svg>
