<svg version="1.1" xmlns="http://www.w3.org/2000/svg" xmlns:xlink="http://www.w3.org/1999/xlink" viewBox="0 0 1664 1587" xml:space="preserve">
<path d="M1137,972l306-297l-422-62L832,231L643,613l-422,62l306,297l-73,421l378-199l377,199L1137,972z M1664,615
	c0,14.67-8.67,30.67-26,48l-363,354l86,500c0.67,4.67,1,11.33,1,20c0,33.33-13.67,50-41,50c-12.67,0-26-4-40-12l-449-236l-449,236
	c-14.67,8-28,12-40,12c-14,0-24.5-4.83-31.5-14.5S301,1551,301,1537c0-4,0.67-10.67,2-20l86-500L25,663C8.33,645,0,629,0,615
	c0-24.67,18.67-40,56-46l502-73L783,41c12.67-27.33,29-41,49-41s36.33,13.67,49,41l225,455l502,73C1645.33,575,1664,590.33,1664,615
	z"/>
</svg>
