<svg version="1.1" xmlns="http://www.w3.org/2000/svg" xmlns:xlink="http://www.w3.org/1999/xlink" viewBox="0 0 1664 1664" xml:space="preserve">
<path d="M1024,672v64c0,8.67-3.17,16.17-9.5,22.5s-13.83,9.5-22.5,9.5H768v224c0,8.67-3.17,16.17-9.5,22.5s-13.83,9.5-22.5,9.5h-64
	c-8.67,0-16.17-3.17-22.5-9.5s-9.5-13.83-9.5-22.5V768H416c-8.67,0-16.17-3.17-22.5-9.5S384,744.67,384,736v-64
	c0-8.67,3.17-16.17,9.5-22.5s13.83-9.5,22.5-9.5h224V416c0-8.67,3.17-16.17,9.5-22.5s13.83-9.5,22.5-9.5h64
	c8.67,0,16.17,3.17,22.5,9.5s9.5,13.83,9.5,22.5v224h224c8.67,0,16.17,3.17,22.5,9.5S1024,663.33,1024,672z M1152,704
	c0-123.33-43.83-228.83-131.5-316.5S827.33,256,704,256s-228.83,43.83-316.5,131.5S256,580.67,256,704s43.83,228.83,131.5,316.5
	S580.67,1152,704,1152s228.83-43.83,316.5-131.5S1152,827.33,1152,704z M1664,1536c0,35.33-12.5,65.5-37.5,90.5
	s-55.17,37.5-90.5,37.5c-36,0-66-12.67-90-38l-343-342c-119.33,82.67-252.33,124-399,124c-95.33,0-186.5-18.5-273.5-55.5
	s-162-87-225-150s-113-138-150-225S0,799.33,0,704s18.5-186.5,55.5-273.5s87-162,150-225s138-113,225-150S608.67,0,704,0
	s186.5,18.5,273.5,55.5s162,87,225,150s113,138,150,225S1408,608.67,1408,704c0,146.67-41.33,279.67-124,399l343,343
	C1651.67,1470.67,1664,1500.67,1664,1536z"/>
</svg>
