<svg version="1.1" xmlns="http://www.w3.org/2000/svg" xmlns:xlink="http://www.w3.org/1999/xlink" viewBox="0 0 1664 1664" xml:space="preserve">
<path d="M1152,704c0-123.33-43.83-228.83-131.5-316.5S827.33,256,704,256s-228.83,43.83-316.5,131.5S256,580.67,256,704
	s43.83,228.83,131.5,316.5S580.67,1152,704,1152s228.83-43.83,316.5-131.5S1152,827.33,1152,704z M1664,1536
	c0,34.67-12.67,64.67-38,90s-55.33,38-90,38c-36,0-66-12.67-90-38l-343-342c-119.33,82.67-252.33,124-399,124
	c-95.33,0-186.5-18.5-273.5-55.5s-162-87-225-150s-113-138-150-225S0,799.33,0,704s18.5-186.5,55.5-273.5s87-162,150-225
	s138-113,225-150S608.67,0,704,0s186.5,18.5,273.5,55.5s162,87,225,150s113,138,150,225S1408,608.67,1408,704
	c0,146.67-41.33,279.67-124,399l343,343C1651.67,1470.67,1664,1500.67,1664,1536z"/>
</svg>
