<?xml version="1.0" encoding="utf-8"?>
<!-- Generator: Adobe Illustrator 21.1.0, SVG Export Plug-In . SVG Version: 6.00 Build 0)  -->
<svg version="1.1" id="Слой_1" xmlns="http://www.w3.org/2000/svg" xmlns:xlink="http://www.w3.org/1999/xlink" x="0px" y="0px"
	 viewBox="0 0 1664 1587" enable-background="new 0 0 1664 1587" xml:space="preserve">
<path d="M1664,615c0,14.67-8.67,30.67-26,48l-363,354l86,500c0.67,4.67,1,11.33,1,20c0,14-3.5,25.83-10.5,35.5
	s-17.17,14.5-30.5,14.5c-12.67,0-26-4-40-12l-449-236l-449,236c-14.67,8-28,12-40,12c-14,0-24.5-4.83-31.5-14.5S301,1551,301,1537
	c0-4,0.67-10.67,2-20l86-500L25,663C8.33,645,0,629,0,615c0-24.67,18.67-40,56-46l502-73L783,41c12.67-27.33,29-41,49-41
	s36.33,13.67,49,41l225,455l502,73C1645.33,575,1664,590.33,1664,615z"/>
</svg>
